<svg width="44" height="44" viewBox="0 0 44 44" fill="none" xmlns="http://www.w3.org/2000/svg">
<mask id="mask0_86_6363" style="mask-type:alpha" maskUnits="userSpaceOnUse" x="12" y="24" width="20" height="10">
<path fill-rule="evenodd" clip-rule="evenodd" d="M12.667 24.9121H31.1469V33.5151H12.667V24.9121Z" fill="white"/>
</mask>
<g mask="url(#mask0_86_6363)">
<path fill-rule="evenodd" clip-rule="evenodd" d="M21.9082 26.6621C16.937 26.6621 14.417 27.5161 14.417 29.202C14.417 30.903 16.937 31.7651 21.9082 31.7651C26.8782 31.7651 29.397 30.9111 29.397 29.2253C29.397 27.5243 26.8782 26.6621 21.9082 26.6621ZM21.9082 33.5151C19.6227 33.5151 12.667 33.5151 12.667 29.202C12.667 25.3566 17.9415 24.9121 21.9082 24.9121C24.1937 24.9121 31.147 24.9121 31.147 29.2253C31.147 33.0706 25.8737 33.5151 21.9082 33.5151Z" fill="#61646B"/>
</g>
<mask id="mask1_86_6363" style="mask-type:alpha" maskUnits="userSpaceOnUse" x="15" y="10" width="14" height="13">
<path fill-rule="evenodd" clip-rule="evenodd" d="M15.7119 10.3335H28.102V22.7218H15.7119V10.3335Z" fill="white"/>
</mask>
<g mask="url(#mask1_86_6363)">
<path fill-rule="evenodd" clip-rule="evenodd" d="M21.9081 11.999C19.4103 11.999 17.378 14.0302 17.378 16.528C17.3698 19.0177 19.387 21.0477 21.8743 21.057L21.9081 21.89V21.057C24.4048 21.057 26.436 19.0247 26.436 16.528C26.436 14.0302 24.4048 11.999 21.9081 11.999ZM21.9081 22.7218H21.8708C18.4618 22.7113 15.7003 19.9312 15.712 16.5245C15.712 13.112 18.491 10.333 21.9081 10.333C25.3241 10.333 28.102 13.112 28.102 16.528C28.102 19.944 25.3241 22.7218 21.9081 22.7218Z" fill="#61646B"/>
</g>
</svg>
