<svg width="25" height="26" viewBox="0 0 25 26" fill="none" xmlns="http://www.w3.org/2000/svg">
<path fill-rule="evenodd" clip-rule="evenodd" d="M14.0028 16.8398C15.4075 16.8398 16.5508 17.975 16.5508 19.3703V22.959C16.5508 23.2588 16.7912 23.4992 17.0992 23.5062H19.3228C21.0752 23.5062 22.4997 22.0992 22.4997 20.3702V10.1922C22.4915 9.59718 22.208 9.03718 21.7215 8.66502L14.0297 2.53068C12.9972 1.71285 11.5528 1.71285 10.5168 2.53302L2.87751 8.66268C2.37234 9.04652 2.08884 9.60652 2.08301 10.212V20.3702C2.08301 22.0992 3.50751 23.5062 5.25984 23.5062H7.50451C7.82067 23.5062 8.07734 23.2553 8.07734 22.9473C8.07734 22.8797 8.08551 22.812 8.09951 22.7478V19.3703C8.09951 17.9832 9.23584 16.8492 10.63 16.8398H14.0028ZM19.3228 25.2562H17.0782C15.7925 25.2259 14.8008 24.2167 14.8008 22.959V19.3703C14.8008 18.9398 14.4427 18.5898 14.0028 18.5898H10.6358C10.2053 18.5922 9.84951 18.9433 9.84951 19.3703V22.9473C9.84951 23.0349 9.83784 23.1189 9.81334 23.1982C9.68734 24.3532 8.70034 25.2562 7.50451 25.2562H5.25984C2.54267 25.2562 0.333008 23.064 0.333008 20.3702V10.2039C0.344674 9.04418 0.879008 7.98252 1.80184 7.28368L9.42601 1.16452C11.1048 -0.165483 13.444 -0.165483 15.1193 1.16218L22.7983 7.28718C23.7002 7.97435 24.2345 9.03368 24.2497 10.1794V20.3702C24.2497 23.064 22.04 25.2562 19.3228 25.2562Z" fill="#F52D11"/>
</svg>
