<svg width="45" height="44" viewBox="0 0 45 44" fill="none" xmlns="http://www.w3.org/2000/svg">
<mask id="mask0_86_6336" style="mask-type:alpha" maskUnits="userSpaceOnUse" x="10" y="10" width="24" height="24">
<path fill-rule="evenodd" clip-rule="evenodd" d="M10.833 10.3333H33.5559V33.0565H10.833V10.3333Z" fill="white"/>
</mask>
<g mask="url(#mask0_86_6336)">
<path fill-rule="evenodd" clip-rule="evenodd" d="M22.1952 12.0833C16.895 12.0833 12.583 16.3942 12.583 21.6943C12.583 26.9945 16.895 31.3065 22.1952 31.3065C27.4942 31.3065 31.8062 26.9945 31.8062 21.6943C31.8062 16.3942 27.4942 12.0833 22.1952 12.0833ZM22.1952 33.0565C15.9302 33.0565 10.833 27.9593 10.833 21.6943C10.833 15.4293 15.9302 10.3333 22.1952 10.3333C28.4602 10.3333 33.5562 15.4293 33.5562 21.6943C33.5562 27.9593 28.4602 33.0565 22.1952 33.0565Z" fill="#61646B"/>
</g>
<mask id="mask1_86_6336" style="mask-type:alpha" maskUnits="userSpaceOnUse" x="28" y="28" width="7" height="7">
<path fill-rule="evenodd" clip-rule="evenodd" d="M28.6133 28.6581H34.4747V34.5086H28.6133V28.6581Z" fill="white"/>
</mask>
<g mask="url(#mask1_86_6336)">
<path fill-rule="evenodd" clip-rule="evenodd" d="M33.5999 34.5086C33.3771 34.5086 33.1531 34.4235 32.9816 34.2531L28.8702 30.1535C28.5284 29.8116 28.5272 29.2575 28.8691 28.9156C29.2097 28.5715 29.7639 28.5738 30.1069 28.9133L34.2182 33.0141C34.5601 33.356 34.5612 33.909 34.2194 34.2508C34.0491 34.4235 33.8239 34.5086 33.5999 34.5086Z" fill="#61646B"/>
</g>
</svg>
